<svg xmlns="http://www.w3.org/2000/svg" xmlns:xlink="http://www.w3.org/1999/xlink" viewBox="0,0,256,256" width="30px"
    height="30px">
    <g fill="rgb(226 232 240)" fill-rule="nonzero" stroke="none" stroke-width="1" stroke-linecap="butt"
        stroke-linejoin="miter" stroke-miterlimit="10" stroke-dasharray="" stroke-dashoffset="0" font-family="none"
        font-weight="none" font-size="none" text-anchor="none" style="mix-blend-mode: normal">
        <g transform="scale(8.53333,8.53333)">
            <path
                d="M24,4h-18c-1.105,0 -2,0.895 -2,2v18c0,1.105 0.895,2 2,2h18c1.105,0 2,-0.895 2,-2v-18c0,-1.105 -0.896,-2 -2,-2zM21,18.453c0,1.132 -0.914,2.535 -2.999,2.535c-1.862,0 -2.333,-1.194 -2.333,-1.999c0,-0.991 0.598,-2.005 2.335,-2.004c1.573,0 1.664,-0.401 1.664,-1.193v-4.028l-7.331,1.195c0,0 0,5.965 0,6.632c0,1.132 -0.914,2.41 -2.999,2.41c-1.862,0 -2.333,-1.194 -2.333,-1.999c0,-0.991 0.598,-2.005 2.335,-2.005c1.573,0 1.664,-0.401 1.664,-1.193c0,-2.21 0,-6.804 0,-6.804c0,-0.33 0.244,-0.591 0.558,-0.645l8.688,-1.349c0,0 0.058,-0.005 0.085,-0.005c0.368,-0.001 0.666,0.297 0.666,0.665c0,0 0,9.121 0,9.787z">
            </path>
        </g>
    </g>
</svg>