<svg width="24" height="24" viewBox="0 0 24 24" fill="none" xmlns="http://www.w3.org/2000/svg">
    <path fill-rule="evenodd" clip-rule="evenodd"
        d="M12 24C18.6274 24 24 18.6274 24 12C24 5.37259 18.6274 0 12 0C5.37259 0 0 5.37259 0 12C0 18.6274 5.37259 24 12 24ZM7.25866 6.17573C7.36607 6.06322 7.51174 6 7.66364 6H9.79091C9.94281 6 10.0885 6.06322 10.1959 6.17573C10.3033 6.28826 10.3636 6.44087 10.3636 6.6V17.4C10.3636 17.5592 10.3033 17.7118 10.1959 17.8243C10.0885 17.9368 9.94281 18 9.79091 18H7.66364C7.51174 18 7.36607 17.9368 7.25866 17.8243C7.15125 17.7118 7.09091 17.5592 7.09091 17.4V6.6C7.09091 6.44087 7.15125 6.28826 7.25866 6.17573ZM13.8041 6.17573C13.9115 6.06322 14.0572 6 14.2091 6H16.3364C16.4882 6 16.634 6.06322 16.7413 6.17573C16.8488 6.28826 16.9091 6.44087 16.9091 6.6V17.4C16.9091 17.5592 16.8488 17.7118 16.7413 17.8243C16.634 17.9368 16.4882 18 16.3364 18H14.2091C14.0572 18 13.9115 17.9368 13.8041 17.8243C13.6967 17.7118 13.6364 17.5592 13.6364 17.4V6.6C13.6364 6.44087 13.6967 6.28826 13.8041 6.17573Z"
        fill="rgb(226 232 240)" />
</svg>